Coordinates
version=1
nRows=25
nColumns=23
inDegrees=yes

Units are S.I. units (second, meters, Newtons, ...)
If the header above contains a line with 'inDegrees', this indicates whether rotational values are in degrees (yes) or radians (no).

endheader
time	pelvis_tilt	pelvis_list	pelvis_rotation	pelvis_tx	pelvis_ty	pelvis_tz	hip_flexion_r	hip_adduction_r	hip_rotation_r	knee_angle_r	knee_angle_r_beta	ankle_angle_r	subtalar_angle_r	mtp_angle_r	hip_flexion_l	hip_adduction_l	hip_rotation_l	knee_angle_l	knee_angle_l_beta	ankle_angle_l	subtalar_angle_l	mtp_angle_l
     15.00000000	     -1.68844946	      9.64595818	      9.19772261	      2.34902292	      0.89768817	      1.06777313	     14.81980784	    -12.89343930	     -8.85583472	    128.39991692	      2.24100131	      1.27189246	    -12.74514284	      0.00000000	     21.74444923	     10.34896770	     -3.47967423	     49.92056187	      0.87127817	     25.62239294	      4.95392458	      0.00000000
     15.00666667	     -1.39021868	      9.68206830	      8.35365805	      2.34725843	      0.89899812	      1.06862473	     18.10294946	    -12.91088028	     -6.90114220	    129.41280604	      2.25867956	      1.85299919	    -11.60025301	      0.00000000	     19.10479219	      9.84410729	     -3.82542344	     49.35233399	      0.86136072	     26.91497109	      5.68156781	      0.00000000
     15.01333333	     -1.02251132	      9.58677844	      7.38796080	      2.34589481	      0.90099021	      1.06942329	     21.29600751	    -12.62427209	     -4.99077764	    129.89830736	      2.26715316	      2.37363759	    -10.77003730	      0.00000000	     16.18355993	      9.28945207	     -4.14730168	     48.32262623	      0.84338893	     27.62920277	      6.01334556	      0.00000000
     15.02000000	     -0.80421494	      9.30017839	      6.42720956	      2.34484299	      0.90320825	      1.06997340	     24.56139985	    -12.04257655	     -3.29057580	    129.92608011	      2.26763788	      2.87171154	    -10.17224347	      0.00000000	     13.30570552	      8.68826898	     -4.40926354	     47.01303625	      0.82053227	     28.09299599	      6.26818954	      0.00000000
     15.02666667	     -0.75081778	      8.90792040	      5.37369293	      2.34417238	      0.90561983	      1.07045270	     27.90116748	    -11.21427592	     -1.70200652	    129.54036168	      2.26090583	      3.44360052	     -9.81183434	      0.00000000	     10.48504694	      8.05384586	     -4.83305248	     45.41533412	      0.79264711	     28.10401483	      6.62489434	      0.00000000
     15.03333333	     -0.85631900	      8.34308273	      4.37190691	      2.34393344	      0.90820112	      1.07073686	     31.19209046	    -10.12660869	     -0.43777712	    128.73060122	      2.24677284	      4.00520389	     -9.75892353	      0.00000000	      7.76495043	      7.34445156	     -5.27289404	     43.63445622	      0.76156493	     27.80931928	      6.98873869	      0.00000000
     15.04000000	     -1.09082245	      7.65254576	      3.33525776	      2.34415485	      0.91094439	      1.07101292	     34.39169721	     -8.79310810	      0.58617501	    127.52802005	      2.22578384	      4.52402182	    -10.02338761	      0.00000000	      5.11901576	      6.56516031	     -5.87999518	     41.67533873	      0.72737188	     27.03538727	      7.37461877	      0.00000000
     15.04666667	     -1.41591036	      6.83553271	      2.31122256	      2.34465594	      0.91389075	      1.07131241	     37.44571031	     -7.27171319	      1.28738557	    125.96145233	      2.19844207	      4.97754956	    -10.59634906	      0.00000000	      2.54290235	      5.73063171	     -6.56382279	     39.56130206	      0.69047498	     25.65457005	      7.71329125	      0.00000000
     15.05333333	     -1.78947507	      5.90895666	      1.33531193	      2.34577969	      0.91716916	      1.07162045	     40.20445779	     -5.55110657	      1.70831655	    123.99274469	      2.16408164	      5.34316274	    -11.43275063	      0.00000000	     -0.05117275	      4.88223860	     -7.22098401	     37.24460602	      0.65004100	     23.63865569	      7.92733514	      0.00000000
     15.06000000	     -1.76993229	      4.67679783	      0.57434325	      2.34752429	      0.92150410	      1.07176949	     42.07144941	     -3.73122985	      1.48521609	    121.53084375	      2.12111337	      5.62306673	    -12.67623338	      0.00000000	     -3.14062957	      3.80651489	     -7.62236983	     34.66189820	      0.60496425	     20.80669297	      7.69406903	      0.00000000
     15.06666667	     -2.16800729	      3.60704568	     -0.25601458	      2.34938861	      0.92530690	      1.07212883	     44.26055189	     -1.98750455	      1.36563319	    118.91886911	      2.07552581	      5.96154035	    -13.65984496	      0.00000000	     -5.73850267	      2.99132321	     -8.18035731	     32.03723540	      0.55915524	     17.31306048	      7.21307103	      0.00000000
     15.07333333	     -2.64691291	      2.53322800	     -1.03380938	      2.35149952	      0.92916222	      1.07260605	     46.28665571	     -0.26479819	      1.12409953	    116.03938249	      2.02526929	      6.26218151	    -14.60408373	      0.00000000	     -8.19685785	      2.22128228	     -8.76541224	     29.40140490	      0.51315132	     13.30626227	      6.50824404	      0.00000000
     15.08000000	     -3.25096425	      1.53146813	     -1.77647891	      2.35374680	      0.93286654	      1.07329219	     48.22808593	      1.37935802	      0.85876175	    112.94013179	      1.97117716	      6.44414705	    -15.60700532	      0.00000000	    -10.40080152	      1.53472256	     -9.47606308	     26.90664958	      0.46960963	      8.95121515	      5.81662083	      0.00000000
     15.08666667	     -3.88459741	      0.56506016	     -2.47633080	      2.35612104	      0.93653304	      1.07413338	     49.97681160	      2.95072053	      0.55337056	    109.61644781	      1.91316793	      6.66206290	    -16.31465364	      0.00000000	    -12.41716137	      0.88089700	    -10.30095129	     24.64913367	      0.43020854	      4.40548122	      4.99977071	      0.00000000
     15.09333333	     -4.64954193	     -0.22752426	     -3.15616077	      2.35845775	      0.93991732	      1.07522858	     51.67758558	      4.37211500	      0.35504423	    106.10893190	      1.85195023	      6.76445634	    -16.96993767	      0.00000000	    -14.04302125	      0.35684370	    -11.32658132	     22.83518768	      0.39854921	     -0.06199196	      4.34757274	      0.00000000
     15.10000000	     -5.41555117	     -0.92177005	     -3.77402948	      2.36075880	      0.94319366	      1.07641684	     53.16429093	      5.63908853	      0.18459394	    102.39823196	      1.78718630	      6.83970859	    -17.40385231	      0.00000000	    -15.38377772	     -0.12510698	    -12.47894413	     21.56431337	      0.37636827	     -4.30536009	      3.69254764	      0.00000000
     15.10666667	     -6.13319020	     -1.50262617	     -4.33504806	      2.36298083	      0.94638174	      1.07773548	     54.38318869	      6.74179105	      0.07341855	     98.48684727	      1.71891975	      6.98080528	    -17.50069004	      0.00000000	    -16.47273392	     -0.55660264	    -13.70808312	     20.90086882	      0.36478898	     -8.14199101	      2.99320199	      0.00000000
     15.11333333	     -6.77330562	     -1.99105928	     -4.76904580	      2.36511114	      0.94951269	      1.07902606	     55.29161427	      7.62945602	     -0.03360368	     94.37009495	      1.64706887	      7.15033986	    -17.35626269	      0.00000000	    -17.31268465	     -0.98435860	    -14.92039001	     20.92434251	      0.36519867	    -11.45769935	      2.29760020	      0.00000000
     15.12000000	     -7.76657574	     -2.06730464	     -5.19173048	      2.36688373	      0.95168494	      1.08049434	     56.47162514	      8.18763630	      0.14632866	     90.20462814	      1.57436776	      7.49234837	    -16.71281667	      0.00000000	    -17.36286451	     -1.14657723	    -16.13601714	     21.78265429	      0.38017904	    -14.04910102	      1.70668991	      0.00000000
     15.12666667	     -7.71137920	     -2.83388671	     -5.36967239	      2.36894665	      0.95549518	      1.08173248	     56.05149243	      8.99923667	     -0.19914628	     85.50174880	      1.49228703	      7.78998682	    -16.15637370	      0.00000000	    -18.43634526	     -1.95419181	    -17.03738225	     23.00810255	      0.40156714	    -15.96362058	      0.84652575	      0.00000000
     15.13333333	     -7.94170555	     -3.23943861	     -5.54078641	      2.37064131	      0.95836514	      1.08309886	     55.82231108	      9.53602887	     -0.27753311	     80.74767093	      1.40931272	      8.22980079	    -15.13642852	      0.00000000	    -18.87769298	     -2.51276125	    -17.83507480	     24.90013515	      0.43458934	    -17.20634536	      0.20496741	      0.00000000
     15.14000000	     -8.50818381	     -3.20773185	     -5.82448294	      2.37183121	      0.96012034	      1.08468007	     55.87643549	      9.91026955	      0.12013306	     75.99769830	      1.32641006	      8.77400536	    -13.98146266	      0.00000000	    -18.67419257	     -2.63436435	    -18.27516642	     27.31169271	      0.47667896	    -17.83826778	     -0.79052725	      0.00000000
     15.14666667	     -8.61787192	     -3.50758824	     -5.84567396	      2.37314865	      0.96235946	      1.08588648	     55.11121444	     10.23319960	      0.15418760	     70.93633583	      1.23807262	      9.41437858	    -12.56375297	      0.00000000	    -18.81923461	     -3.12704135	    -18.43998497	     30.05953286	      0.52463782	    -17.94863093	     -1.50025394	      0.00000000
     15.15333333	     -8.33898057	     -3.91926759	     -5.91210457	      2.37435043	      0.96479379	      1.08709058	     53.69105831	     10.66604305	      0.22858484	     65.67995679	      1.14633150	     10.07087314	    -10.97450361	      0.00000000	    -19.29785006	     -3.65101575	    -18.55743797	     32.98315201	      0.57566460	    -17.65857464	     -1.91985016	      0.00000000
     15.16000000	     -8.61630546	     -3.73755817	     -6.20978708	      2.37493087	      0.96570481	      1.08861041	     52.84863742	     10.91921488	      0.93903234	     60.55678112	      1.05691521	     10.67902597	     -9.40711278	      0.00000000	    -18.90907548	     -3.53041179	    -18.39510695	     36.25947882	      0.63284729	    -17.22141056	     -2.96557545	      0.00000000
